# xmcd CD database file
#
# Track frame offsets:
#	150
#	44147
#	72305
#	91627
#	122087
#	149027
#	172345
#	182167
#	197635
#	228520
#	233780
#	264777
#
# Disc length: 3736 seconds
#
# Revision: 1
# Processed by: cddbd v1.5.2PL0 Copyright (c) Steve Scherf et al.
# Submitted via: CDex 1.51
#
DISCID=b10e960c
DTITLE=Linea c - Mappa di un possibile viaggiatore
DYEAR=1996
DGENRE=Jazz
TTITLE0=Chador
TTITLE1=La marmite a vapeur
TTITLE2=Shadi and shapur
TTITLE3=Le tre tribù
TTITLE4=Marcia di un cammello stanco
TTITLE5=Matiz
TTITLE6=Le marchand de sable
TTITLE7=Rabdomanti
TTITLE8=Fast running
TTITLE9=Malastrana
TTITLE10=Contatto elettrico
TTITLE11=Paludi
EXTD=YEAR: 1996
EXTT0=
EXTT1=
EXTT2=
EXTT3=
EXTT4=
EXTT5=
EXTT6=
EXTT7=
EXTT8=
EXTT9=
EXTT10=
EXTT11=
PLAYORDER=
